<?xml version="1.0" encoding="UTF-8"?><svg id="Ebene_1" xmlns="http://www.w3.org/2000/svg" viewBox="0 0 723.09 206.72"><path d="M0,115.56c0-29.45,30.85-38.71,60.58-47.97,21.6-7.29,35.9-13.74,35.9-27.21s-12.34-22.16-31.7-22.16c-21.04,0-35.06,12.34-38.99,34.22H3.37C7.57,21.04,31.41.28,65.64.28s54.69,16.55,54.69,46.28v105.75h-23.56v-19.36c-11.22,13.74-28.89,21.88-49.08,21.88-29.17,0-47.68-15.43-47.68-39.27ZM53.01,137.72c17.11,0,34.5-7.57,43.75-20.2v-37.31l.28-12.62c-7.01,7.01-18.23,11.5-30.85,15.99-22.16,7.57-42.64,13.46-42.64,32.26,0,14.02,12.62,21.88,29.45,21.88Z"/><path d="M140.96,77.42C140.96,29.17,166.76.84,203.23.84c22.16,0,39.83,10.94,50.21,31.14V3.37h23.84v144.17c0,38.99-25.8,59.18-66.48,59.18-35.06,0-59.18-15.43-65.35-44.04h23.84c5.05,18.51,19.07,27.49,41.51,27.49,26.37,0,42.35-13.46,42.64-39.55v-27.77c-10.38,19.91-28.05,31.13-50.21,31.13-36.74,0-62.27-28.33-62.27-76.57ZM253.15,77.13c0-37.3-17.95-57.78-44.32-57.78s-44.04,20.2-44.04,58.06,17.67,58.06,44.04,58.06,44.32-20.75,44.32-58.34Z"/><path d="M296.03,77.98c0-48.24,27.49-77.98,67.04-77.98s65.64,27.77,65.64,76.29v3.65h-109.11c.56,37.02,17.67,57.5,43.2,57.5,20.48,0,35.34-13.74,40.95-38.99h23c-6.73,36.46-30.29,57.22-63.95,57.22-39.55,0-66.76-28.61-66.76-77.7ZM320.72,63.11h83.86c-4.21-29.17-19.91-44.88-41.79-44.88s-38.15,16.27-42.07,44.88Z"/><path d="M447.19,3.37h24.12v20.2c10.38-14.03,26.93-22.72,46.28-22.72,31.41,0,52.17,19.92,52.17,50.21v101.26h-24.12V54.98c0-22.72-14.03-35.9-35.62-35.9-16.55,0-30.85,8.41-38.71,21.04v112.2h-24.12V3.37Z"/><path d="M622.11,26.08v100.98h-25.25V26.08h25.25ZM697.84.84v25.24h-75.73V.84h75.73ZM697.84,152.31h-75.73v-25.24h75.73v25.24ZM723.09,26.08v25.24h-25.25v-25.24h25.25ZM723.09,101.82v25.24h-25.25v-25.24h25.25Z"/></svg>